<?xml version="1.0" encoding="UTF-8" standalone="no"?><svg xmlns="http://www.w3.org/2000/svg" xmlns:xlink="http://www.w3.org/1999/xlink" contentStyleType="text/css" height="1069px" preserveAspectRatio="none" style="width:2065px;height:1069px;background:#FFFFFF;" version="1.1" viewBox="0 0 2065 1069" width="2065px" zoomAndPan="magnify"><defs/><g><!--MD5=[76ce0ed0bc115f21bb1602e6b80d6725]
cluster Game2048--><g id="cluster_Game2048"><path d="M8.5,6 L81.5,6 A3.75,3.75 0 0 1 84,8.5 L91,29.6094 L2055.5,29.6094 A2.5,2.5 0 0 1 2058,32.1094 L2058,1059.5 A2.5,2.5 0 0 1 2055.5,1062 L8.5,1062 A2.5,2.5 0 0 1 6,1059.5 L6,8.5 A2.5,2.5 0 0 1 8.5,6 " fill="none" style="stroke:#000000;stroke-width:1.5;"/><line style="stroke:#000000;stroke-width:1.5;" x1="6" x2="91" y1="29.6094" y2="29.6094"/><text fill="#000000" font-family="sans-serif" font-size="14" font-weight="bold" lengthAdjust="spacing" textLength="72" x="10" y="22.5332">Game2048</text></g><!--MD5=[4c636a34c13e801d0c480ad53dc0b798]
class Game2048.Game2048--><g id="elem_Game2048.Game2048"><rect codeLine="9" fill="#F1F1F1" height="118.4375" id="Game2048.Game2048" rx="2.5" ry="2.5" style="stroke:#181818;stroke-width:0.5;" width="114" x="799" y="218.5"/><ellipse cx="819.4" cy="234.5" fill="#ADD1B2" rx="11" ry="11" style="stroke:#181818;stroke-width:1.0;"/><path d="M823.0875,235.7031 Q822.8375,239.1875 821.6969,240.3438 Q820.6656,241.3594 819.2594,241.3594 Q817.8531,241.3594 816.8219,240.3438 Q815.0719,238.5781 815.0719,234.9063 Q815.0719,230.6563 816.9469,228.75 Q817.9938,227.7344 819.3219,227.7344 Q820.7281,227.7344 821.5719,228.5469 Q823.0563,230.0625 822.9781,232.9375 L820.8531,232.9375 Q820.775,230.6094 820.1344,229.9688 Q819.8531,229.6719 819.3219,229.6719 Q818.8688,229.6719 818.5094,230.0469 Q817.275,231.2656 817.275,234.7813 Q817.275,237.8281 818.3219,238.8438 Q818.7438,239.2813 819.2594,239.2813 Q819.7125,239.2813 820.15,238.8438 Q820.7125,238.2969 820.7906,235.7031 L823.0875,235.7031 Z " fill="#000000"/><text fill="#000000" font-family="sans-serif" font-size="14" lengthAdjust="spacing" textLength="70" x="834.6" y="240.2285">Game2048</text><line style="stroke:#181818;stroke-width:0.5;" x1="800" x2="912" y1="250.5" y2="250.5"/><line style="stroke:#181818;stroke-width:0.5;" x1="800" x2="912" y1="258.5" y2="258.5"/><ellipse cx="810" cy="272.8047" fill="#84BE84" rx="3" ry="3" style="stroke:#038048;stroke-width:1.0;"/><text fill="#000000" font-family="sans-serif" font-size="14" lengthAdjust="spacing" textLength="80" x="819" y="277.0332">Game2048()</text><ellipse cx="810" cy="290.4141" fill="#84BE84" rx="3" ry="3" style="stroke:#038048;stroke-width:1.0;"/><text fill="#000000" font-family="sans-serif" font-size="14" lengthAdjust="spacing" textLength="88" x="819" y="294.6426">~Game2048()</text><ellipse cx="810" cy="308.0234" fill="#84BE84" rx="3" ry="3" style="stroke:#038048;stroke-width:1.0;"/><text fill="#000000" font-family="sans-serif" font-size="14" lengthAdjust="spacing" textLength="79" x="819" y="312.252">Final() : void</text><ellipse cx="810" cy="325.6328" fill="#84BE84" rx="3" ry="3" style="stroke:#038048;stroke-width:1.0;"/><text fill="#000000" font-family="sans-serif" font-size="14" lengthAdjust="spacing" textLength="66" x="819" y="329.8613">Init() : void</text></g><!--MD5=[143e6f982b969b2c771dfa4af232e750]
class Game2048.GameScene--><g id="elem_Game2048.GameScene"><rect codeLine="16" fill="#F1F1F1" height="118.4375" id="Game2048.GameScene" rx="2.5" ry="2.5" style="stroke:#181818;stroke-width:0.5;" width="122" x="569" y="218.5"/><ellipse cx="589.4" cy="234.5" fill="#ADD1B2" rx="11" ry="11" style="stroke:#181818;stroke-width:1.0;"/><path d="M593.0875,235.7031 Q592.8375,239.1875 591.6969,240.3438 Q590.6656,241.3594 589.2594,241.3594 Q587.8531,241.3594 586.8219,240.3438 Q585.0719,238.5781 585.0719,234.9063 Q585.0719,230.6563 586.9469,228.75 Q587.9938,227.7344 589.3219,227.7344 Q590.7281,227.7344 591.5719,228.5469 Q593.0563,230.0625 592.9781,232.9375 L590.8531,232.9375 Q590.775,230.6094 590.1344,229.9688 Q589.8531,229.6719 589.3219,229.6719 Q588.8688,229.6719 588.5094,230.0469 Q587.275,231.2656 587.275,234.7813 Q587.275,237.8281 588.3219,238.8438 Q588.7438,239.2813 589.2594,239.2813 Q589.7125,239.2813 590.15,238.8438 Q590.7125,238.2969 590.7906,235.7031 L593.0875,235.7031 Z " fill="#000000"/><text fill="#000000" font-family="sans-serif" font-size="14" lengthAdjust="spacing" textLength="78" x="604.6" y="240.2285">GameScene</text><line style="stroke:#181818;stroke-width:0.5;" x1="570" x2="690" y1="250.5" y2="250.5"/><line style="stroke:#181818;stroke-width:0.5;" x1="570" x2="690" y1="258.5" y2="258.5"/><ellipse cx="580" cy="272.8047" fill="#84BE84" rx="3" ry="3" style="stroke:#038048;stroke-width:1.0;"/><text fill="#000000" font-family="sans-serif" font-size="14" lengthAdjust="spacing" textLength="88" x="589" y="277.0332">GameScene()</text><ellipse cx="580" cy="290.4141" fill="#84BE84" rx="3" ry="3" style="stroke:#038048;stroke-width:1.0;"/><text fill="#000000" font-family="sans-serif" font-size="14" lengthAdjust="spacing" textLength="96" x="589" y="294.6426">~GameScene()</text><ellipse cx="580" cy="308.0234" fill="#84BE84" rx="3" ry="3" style="stroke:#038048;stroke-width:1.0;"/><text fill="#000000" font-family="sans-serif" font-size="14" lengthAdjust="spacing" textLength="79" x="589" y="312.252">Final() : void</text><ellipse cx="580" cy="325.6328" fill="#84BE84" rx="3" ry="3" style="stroke:#038048;stroke-width:1.0;"/><text fill="#000000" font-family="sans-serif" font-size="14" lengthAdjust="spacing" textLength="66" x="589" y="329.8613">Init() : void</text></g><!--MD5=[339339ce73ebd7f6400ea39ce48cb19a]
class Game2048.GameSceneCanvas--><g id="elem_Game2048.GameSceneCanvas"><rect codeLine="23" fill="#F1F1F1" height="118.4375" id="Game2048.GameSceneCanvas" rx="2.5" ry="2.5" style="stroke:#181818;stroke-width:0.5;" width="170" x="948" y="218.5"/><ellipse cx="968.4" cy="234.5" fill="#ADD1B2" rx="11" ry="11" style="stroke:#181818;stroke-width:1.0;"/><path d="M972.0875,235.7031 Q971.8375,239.1875 970.6969,240.3438 Q969.6656,241.3594 968.2594,241.3594 Q966.8531,241.3594 965.8219,240.3438 Q964.0719,238.5781 964.0719,234.9063 Q964.0719,230.6563 965.9469,228.75 Q966.9938,227.7344 968.3219,227.7344 Q969.7281,227.7344 970.5719,228.5469 Q972.0563,230.0625 971.9781,232.9375 L969.8531,232.9375 Q969.775,230.6094 969.1344,229.9688 Q968.8531,229.6719 968.3219,229.6719 Q967.8688,229.6719 967.5094,230.0469 Q966.275,231.2656 966.275,234.7813 Q966.275,237.8281 967.3219,238.8438 Q967.7438,239.2813 968.2594,239.2813 Q968.7125,239.2813 969.15,238.8438 Q969.7125,238.2969 969.7906,235.7031 L972.0875,235.7031 Z " fill="#000000"/><text fill="#000000" font-family="sans-serif" font-size="14" lengthAdjust="spacing" textLength="126" x="983.6" y="240.2285">GameSceneCanvas</text><line style="stroke:#181818;stroke-width:0.5;" x1="949" x2="1117" y1="250.5" y2="250.5"/><line style="stroke:#181818;stroke-width:0.5;" x1="949" x2="1117" y1="258.5" y2="258.5"/><ellipse cx="959" cy="272.8047" fill="#84BE84" rx="3" ry="3" style="stroke:#038048;stroke-width:1.0;"/><text fill="#000000" font-family="sans-serif" font-size="14" lengthAdjust="spacing" textLength="136" x="968" y="277.0332">GameSceneCanvas()</text><ellipse cx="959" cy="290.4141" fill="#84BE84" rx="3" ry="3" style="stroke:#038048;stroke-width:1.0;"/><text fill="#000000" font-family="sans-serif" font-size="14" lengthAdjust="spacing" textLength="144" x="968" y="294.6426">~GameSceneCanvas()</text><ellipse cx="959" cy="308.0234" fill="#84BE84" rx="3" ry="3" style="stroke:#038048;stroke-width:1.0;"/><text fill="#000000" font-family="sans-serif" font-size="14" lengthAdjust="spacing" textLength="79" x="968" y="312.252">Final() : void</text><ellipse cx="959" cy="325.6328" fill="#84BE84" rx="3" ry="3" style="stroke:#038048;stroke-width:1.0;"/><text fill="#000000" font-family="sans-serif" font-size="14" lengthAdjust="spacing" textLength="66" x="968" y="329.8613">Init() : void</text></g><!--MD5=[583b407578065590f7240991331a4d7d]
class Game2048.GameTimer--><g id="elem_Game2048.GameTimer"><rect codeLine="30" fill="#F1F1F1" height="136.0469" id="Game2048.GameTimer" rx="2.5" ry="2.5" style="stroke:#181818;stroke-width:0.5;" width="276" x="1153" y="209.5"/><ellipse cx="1249.75" cy="225.5" fill="#ADD1B2" rx="11" ry="11" style="stroke:#181818;stroke-width:1.0;"/><path d="M1253.4375,226.7031 Q1253.1875,230.1875 1252.0469,231.3438 Q1251.0156,232.3594 1249.6094,232.3594 Q1248.2031,232.3594 1247.1719,231.3438 Q1245.4219,229.5781 1245.4219,225.9063 Q1245.4219,221.6563 1247.2969,219.75 Q1248.3438,218.7344 1249.6719,218.7344 Q1251.0781,218.7344 1251.9219,219.5469 Q1253.4063,221.0625 1253.3281,223.9375 L1251.2031,223.9375 Q1251.125,221.6094 1250.4844,220.9688 Q1250.2031,220.6719 1249.6719,220.6719 Q1249.2188,220.6719 1248.8594,221.0469 Q1247.625,222.2656 1247.625,225.7813 Q1247.625,228.8281 1248.6719,229.8438 Q1249.0938,230.2813 1249.6094,230.2813 Q1250.0625,230.2813 1250.5,229.8438 Q1251.0625,229.2969 1251.1406,226.7031 L1253.4375,226.7031 Z " fill="#000000"/><text fill="#000000" font-family="sans-serif" font-size="14" lengthAdjust="spacing" textLength="74" x="1270.25" y="231.2285">GameTimer</text><line style="stroke:#181818;stroke-width:0.5;" x1="1154" x2="1428" y1="241.5" y2="241.5"/><rect fill="none" height="6" style="stroke:#C82930;stroke-width:1.0;" width="6" x="1161" y="252.8047"/><text fill="#000000" font-family="sans-serif" font-size="14" lengthAdjust="spacing" textLength="139" x="1173" y="260.0332">m_elapsedTime : float</text><line style="stroke:#181818;stroke-width:0.5;" x1="1154" x2="1428" y1="267.1094" y2="267.1094"/><ellipse cx="1164" cy="281.4141" fill="#84BE84" rx="3" ry="3" style="stroke:#038048;stroke-width:1.0;"/><text fill="#000000" font-family="sans-serif" font-size="14" lengthAdjust="spacing" textLength="250" x="1173" y="285.6426">GameTimer(Framework::Object* owner)</text><ellipse cx="1164" cy="299.0234" fill="#84BE84" rx="3" ry="3" style="stroke:#038048;stroke-width:1.0;"/><text fill="#000000" font-family="sans-serif" font-size="14" lengthAdjust="spacing" textLength="92" x="1173" y="303.252">~GameTimer()</text><ellipse cx="1164" cy="316.6328" fill="#84BE84" rx="3" ry="3" style="stroke:#038048;stroke-width:1.0;"/><text fill="#000000" font-family="sans-serif" font-size="14" lengthAdjust="spacing" textLength="80" x="1173" y="320.8613">Draw() : void</text><ellipse cx="1164" cy="334.2422" fill="#84BE84" rx="3" ry="3" style="stroke:#038048;stroke-width:1.0;"/><text fill="#000000" font-family="sans-serif" font-size="14" lengthAdjust="spacing" textLength="186" x="1173" y="338.4707">Update(float deltaTime) : void</text></g><!--MD5=[1c5cc52da0ed3cb06ae4842d338367f4]
class Game2048.Grid--><g id="elem_Game2048.Grid"><rect codeLine="38" fill="#F1F1F1" height="470.625" id="Game2048.Grid" rx="2.5" ry="2.5" style="stroke:#181818;stroke-width:0.5;" width="512" x="22" y="42"/><ellipse cx="260.25" cy="58" fill="#ADD1B2" rx="11" ry="11" style="stroke:#181818;stroke-width:1.0;"/><path d="M263.9375,59.2031 Q263.6875,62.6875 262.5469,63.8438 Q261.5156,64.8594 260.1094,64.8594 Q258.7031,64.8594 257.6719,63.8438 Q255.9219,62.0781 255.9219,58.4063 Q255.9219,54.1563 257.7969,52.25 Q258.8438,51.2344 260.1719,51.2344 Q261.5781,51.2344 262.4219,52.0469 Q263.9063,53.5625 263.8281,56.4375 L261.7031,56.4375 Q261.625,54.1094 260.9844,53.4688 Q260.7031,53.1719 260.1719,53.1719 Q259.7188,53.1719 259.3594,53.5469 Q258.125,54.7656 258.125,58.2813 Q258.125,61.3281 259.1719,62.3438 Q259.5938,62.7813 260.1094,62.7813 Q260.5625,62.7813 261,62.3438 Q261.5625,61.7969 261.6406,59.2031 L263.9375,59.2031 Z " fill="#000000"/><text fill="#000000" font-family="sans-serif" font-size="14" lengthAdjust="spacing" textLength="27" x="280.75" y="63.7285">Grid</text><line style="stroke:#181818;stroke-width:0.5;" x1="23" x2="533" y1="74" y2="74"/><rect fill="none" height="6" style="stroke:#C82930;stroke-width:1.0;" width="6" x="30" y="85.3047"/><text fill="#000000" font-family="sans-serif" font-size="14" lengthAdjust="spacing" textLength="192" x="42" y="92.5332">m_gameState : GAME_STATE</text><rect fill="none" height="6" style="stroke:#C82930;stroke-width:1.0;" width="6" x="30" y="102.9141"/><text fill="#000000" font-family="sans-serif" font-size="14" lengthAdjust="spacing" textLength="106" x="42" y="110.1426">m_gridLeft : float</text><rect fill="none" height="6" style="stroke:#C82930;stroke-width:1.0;" width="6" x="30" y="120.5234"/><text fill="#000000" font-family="sans-serif" font-size="14" lengthAdjust="spacing" textLength="107" x="42" y="127.752">m_gridTop : float</text><rect fill="none" height="6" style="stroke:#C82930;stroke-width:1.0;" width="6" x="30" y="138.1328"/><text fill="#000000" font-family="sans-serif" font-size="14" lengthAdjust="spacing" textLength="229" x="42" y="145.3613">m_randomEngine : std::mt19937_64</text><rect fill="none" height="6" style="stroke:#C82930;stroke-width:1.0;" width="6" x="30" y="155.7422"/><text fill="#000000" font-family="sans-serif" font-size="14" lengthAdjust="spacing" textLength="343" x="42" y="162.9707">m_randomGenerator : std::uniform_real_distribution&lt;&gt;</text><rect fill="none" height="6" style="stroke:#C82930;stroke-width:1.0;" width="6" x="30" y="173.3516"/><text fill="#000000" font-family="sans-serif" font-size="14" lengthAdjust="spacing" textLength="393" x="42" y="180.5801">m_gameClearText : std::unique_ptr&lt;class Framework::Object&gt;</text><rect fill="none" height="6" style="stroke:#C82930;stroke-width:1.0;" width="6" x="30" y="190.9609"/><text fill="#000000" font-family="sans-serif" font-size="14" lengthAdjust="spacing" textLength="390" x="42" y="198.1895">m_gameOverText : std::unique_ptr&lt;class Framework::Object&gt;</text><rect fill="none" height="6" style="stroke:#C82930;stroke-width:1.0;" width="6" x="30" y="208.5703"/><text fill="#000000" font-family="sans-serif" font-size="14" lengthAdjust="spacing" textLength="486" x="42" y="215.7988">m_tiles : std::vector&lt;std::vector&lt;std::unique_ptr&lt;class Framework::Object&gt;&gt;&gt;</text><rect fill="none" height="6" style="stroke:#C82930;stroke-width:1.0;" width="6" x="30" y="226.1797"/><text fill="#000000" font-family="sans-serif" font-size="14" lengthAdjust="spacing" textLength="296" x="42" y="233.4082">m_grid : std::vector&lt;std::vector&lt;unsigned int&gt;&gt;</text><line style="stroke:#181818;stroke-width:0.5;" x1="23" x2="533" y1="240.4844" y2="240.4844"/><ellipse cx="33" cy="254.7891" fill="#84BE84" rx="3" ry="3" style="stroke:#038048;stroke-width:1.0;"/><text fill="#000000" font-family="sans-serif" font-size="14" lengthAdjust="spacing" textLength="203" x="42" y="259.0176">Grid(Framework::Object* owner)</text><ellipse cx="33" cy="272.3984" fill="#84BE84" rx="3" ry="3" style="stroke:#038048;stroke-width:1.0;"/><text fill="#000000" font-family="sans-serif" font-size="14" lengthAdjust="spacing" textLength="45" x="42" y="276.627">~Grid()</text><rect fill="#F24D5C" height="6" style="stroke:#C82930;stroke-width:1.0;" width="6" x="30" y="287.0078"/><text fill="#000000" font-family="sans-serif" font-size="14" lengthAdjust="spacing" textLength="270" x="42" y="294.2363">CheckInputDirection() : INPUT_DIRECTION</text><rect fill="#F24D5C" height="6" style="stroke:#C82930;stroke-width:1.0;" width="6" x="30" y="304.6172"/><text fill="#000000" font-family="sans-serif" font-size="14" lengthAdjust="spacing" textLength="161" x="42" y="311.8457">CheckGameClear() : bool</text><rect fill="#F24D5C" height="6" style="stroke:#C82930;stroke-width:1.0;" width="6" x="30" y="322.2266"/><text fill="#000000" font-family="sans-serif" font-size="14" lengthAdjust="spacing" textLength="158" x="42" y="329.4551">CheckGameOver() : bool</text><rect fill="#F24D5C" height="6" style="stroke:#C82930;stroke-width:1.0;" width="6" x="30" y="339.8359"/><text fill="#000000" font-family="sans-serif" font-size="14" lengthAdjust="spacing" textLength="262" x="42" y="347.0645">Move(INPUT_DIRECTION direction) : bool</text><rect fill="#F24D5C" height="6" style="stroke:#C82930;stroke-width:1.0;" width="6" x="30" y="357.4453"/><text fill="#000000" font-family="sans-serif" font-size="14" lengthAdjust="spacing" textLength="264" x="42" y="364.6738">Union(INPUT_DIRECTION direction) : bool</text><ellipse cx="33" cy="378.0547" fill="#84BE84" rx="3" ry="3" style="stroke:#038048;stroke-width:1.0;"/><text fill="#000000" font-family="sans-serif" font-size="14" lengthAdjust="spacing" textLength="80" x="42" y="382.2832">Draw() : void</text><rect fill="#F24D5C" height="6" style="stroke:#C82930;stroke-width:1.0;" width="6" x="30" y="392.6641"/><text fill="#000000" font-family="sans-serif" font-size="14" lengthAdjust="spacing" textLength="213" x="42" y="399.8926">GameClear(float deltaTime) : void</text><rect fill="#F24D5C" height="6" style="stroke:#C82930;stroke-width:1.0;" width="6" x="30" y="410.2734"/><text fill="#000000" font-family="sans-serif" font-size="14" lengthAdjust="spacing" textLength="210" x="42" y="417.502">GameOver(float deltaTime) : void</text><rect fill="#F24D5C" height="6" style="stroke:#C82930;stroke-width:1.0;" width="6" x="30" y="427.8828"/><text fill="#000000" font-family="sans-serif" font-size="14" lengthAdjust="spacing" textLength="187" x="42" y="435.1113">Playing(float deltaTime) : void</text><rect fill="#F24D5C" height="6" style="stroke:#C82930;stroke-width:1.0;" width="6" x="30" y="445.4922"/><text fill="#000000" font-family="sans-serif" font-size="14" lengthAdjust="spacing" textLength="292" x="42" y="452.7207">SpawnTile(INPUT_DIRECTION direction) : void</text><rect fill="#F24D5C" height="6" style="stroke:#C82930;stroke-width:1.0;" width="6" x="30" y="463.1016"/><text fill="#000000" font-family="sans-serif" font-size="14" lengthAdjust="spacing" textLength="103" x="42" y="470.3301">TileDraw() : void</text><ellipse cx="33" cy="483.7109" fill="#84BE84" rx="3" ry="3" style="stroke:#038048;stroke-width:1.0;"/><text fill="#000000" font-family="sans-serif" font-size="14" lengthAdjust="spacing" textLength="186" x="42" y="487.9395">Update(float deltaTime) : void</text><rect fill="#F24D5C" height="6" style="stroke:#C82930;stroke-width:1.0;" width="6" x="30" y="498.3203"/><text fill="#000000" font-family="sans-serif" font-size="14" lengthAdjust="spacing" textLength="209" x="42" y="505.5488">UpdateTile(float deltaTime) : void</text></g><!--MD5=[df9843074aa3587d29d7aef2e12c6c63]
class Game2048.PressEnterText--><g id="elem_Game2048.PressEnterText"><rect codeLine="65" fill="#F1F1F1" height="136.0469" id="Game2048.PressEnterText" rx="2.5" ry="2.5" style="stroke:#181818;stroke-width:0.5;" width="335" x="688.5" y="573"/><ellipse cx="803.25" cy="589" fill="#ADD1B2" rx="11" ry="11" style="stroke:#181818;stroke-width:1.0;"/><path d="M806.9375,590.2031 Q806.6875,593.6875 805.5469,594.8438 Q804.5156,595.8594 803.1094,595.8594 Q801.7031,595.8594 800.6719,594.8438 Q798.9219,593.0781 798.9219,589.4063 Q798.9219,585.1563 800.7969,583.25 Q801.8438,582.2344 803.1719,582.2344 Q804.5781,582.2344 805.4219,583.0469 Q806.9063,584.5625 806.8281,587.4375 L804.7031,587.4375 Q804.625,585.1094 803.9844,584.4688 Q803.7031,584.1719 803.1719,584.1719 Q802.7188,584.1719 802.3594,584.5469 Q801.125,585.7656 801.125,589.2813 Q801.125,592.3281 802.1719,593.3438 Q802.5938,593.7813 803.1094,593.7813 Q803.5625,593.7813 804,593.3438 Q804.5625,592.7969 804.6406,590.2031 L806.9375,590.2031 Z " fill="#000000"/><text fill="#000000" font-family="sans-serif" font-size="14" lengthAdjust="spacing" textLength="97" x="823.75" y="594.7285">PressEnterText</text><line style="stroke:#181818;stroke-width:0.5;" x1="689.5" x2="1022.5" y1="605" y2="605"/><rect fill="none" height="6" style="stroke:#C82930;stroke-width:1.0;" width="6" x="696.5" y="616.3047"/><text fill="#000000" font-family="sans-serif" font-size="14" lengthAdjust="spacing" textLength="139" x="708.5" y="623.5332">m_elapsedTime : float</text><line style="stroke:#181818;stroke-width:0.5;" x1="689.5" x2="1022.5" y1="630.6094" y2="630.6094"/><ellipse cx="699.5" cy="644.9141" fill="#84BE84" rx="3" ry="3" style="stroke:#038048;stroke-width:1.0;"/><text fill="#000000" font-family="sans-serif" font-size="14" lengthAdjust="spacing" textLength="309" x="708.5" y="649.1426">PressEnterText(class Framework::Object* owner)</text><ellipse cx="699.5" cy="662.5234" fill="#84BE84" rx="3" ry="3" style="stroke:#038048;stroke-width:1.0;"/><text fill="#000000" font-family="sans-serif" font-size="14" lengthAdjust="spacing" textLength="115" x="708.5" y="666.752">~PressEnterText()</text><ellipse cx="699.5" cy="680.1328" fill="#84BE84" rx="3" ry="3" style="stroke:#038048;stroke-width:1.0;"/><text fill="#000000" font-family="sans-serif" font-size="14" lengthAdjust="spacing" textLength="80" x="708.5" y="684.3613">Draw() : void</text><ellipse cx="699.5" cy="697.7422" fill="#84BE84" rx="3" ry="3" style="stroke:#038048;stroke-width:1.0;"/><text fill="#000000" font-family="sans-serif" font-size="14" lengthAdjust="spacing" textLength="186" x="708.5" y="701.9707">Update(float deltaTime) : void</text></g><!--MD5=[6e8c4a537435b2eed2c1c477ef546112]
class Game2048.QuitButton--><g id="elem_Game2048.QuitButton"><rect codeLine="73" fill="#F1F1F1" height="118.4375" id="Game2048.QuitButton" rx="2.5" ry="2.5" style="stroke:#181818;stroke-width:0.5;" width="305" x="1058.5" y="582"/><ellipse cx="1173.25" cy="598" fill="#ADD1B2" rx="11" ry="11" style="stroke:#181818;stroke-width:1.0;"/><path d="M1176.9375,599.2031 Q1176.6875,602.6875 1175.5469,603.8438 Q1174.5156,604.8594 1173.1094,604.8594 Q1171.7031,604.8594 1170.6719,603.8438 Q1168.9219,602.0781 1168.9219,598.4063 Q1168.9219,594.1563 1170.7969,592.25 Q1171.8438,591.2344 1173.1719,591.2344 Q1174.5781,591.2344 1175.4219,592.0469 Q1176.9063,593.5625 1176.8281,596.4375 L1174.7031,596.4375 Q1174.625,594.1094 1173.9844,593.4688 Q1173.7031,593.1719 1173.1719,593.1719 Q1172.7188,593.1719 1172.3594,593.5469 Q1171.125,594.7656 1171.125,598.2813 Q1171.125,601.3281 1172.1719,602.3438 Q1172.5938,602.7813 1173.1094,602.7813 Q1173.5625,602.7813 1174,602.3438 Q1174.5625,601.7969 1174.6406,599.2031 L1176.9375,599.2031 Z " fill="#000000"/><text fill="#000000" font-family="sans-serif" font-size="14" lengthAdjust="spacing" textLength="67" x="1193.75" y="603.7285">QuitButton</text><line style="stroke:#181818;stroke-width:0.5;" x1="1059.5" x2="1362.5" y1="614" y2="614"/><line style="stroke:#181818;stroke-width:0.5;" x1="1059.5" x2="1362.5" y1="622" y2="622"/><ellipse cx="1069.5" cy="636.3047" fill="#84BE84" rx="3" ry="3" style="stroke:#038048;stroke-width:1.0;"/><text fill="#000000" font-family="sans-serif" font-size="14" lengthAdjust="spacing" textLength="279" x="1078.5" y="640.5332">QuitButton(class Framework::Object* owner)</text><ellipse cx="1069.5" cy="653.9141" fill="#84BE84" rx="3" ry="3" style="stroke:#038048;stroke-width:1.0;"/><text fill="#000000" font-family="sans-serif" font-size="14" lengthAdjust="spacing" textLength="85" x="1078.5" y="658.1426">~QuitButton()</text><ellipse cx="1069.5" cy="671.5234" fill="#84BE84" rx="3" ry="3" style="stroke:#038048;stroke-width:1.0;"/><text fill="#000000" font-family="sans-serif" font-size="14" lengthAdjust="spacing" textLength="80" x="1078.5" y="675.752">Draw() : void</text><ellipse cx="1069.5" cy="689.1328" fill="#84BE84" rx="3" ry="3" style="stroke:#038048;stroke-width:1.0;"/><text fill="#000000" font-family="sans-serif" font-size="14" lengthAdjust="spacing" textLength="186" x="1078.5" y="693.3613">Update(float deltaTime) : void</text></g><!--MD5=[c929866a9fc515bba284828d78bcc21a]
class Game2048.Renderer--><g id="elem_Game2048.Renderer"><rect codeLine="80" fill="#F1F1F1" height="136.0469" id="Game2048.Renderer" rx="2.5" ry="2.5" style="stroke:#181818;stroke-width:0.5;" width="643" x="1398.5" y="573"/><ellipse cx="1685.75" cy="589" fill="#ADD1B2" rx="11" ry="11" style="stroke:#181818;stroke-width:1.0;"/><path d="M1689.4375,590.2031 Q1689.1875,593.6875 1688.0469,594.8438 Q1687.0156,595.8594 1685.6094,595.8594 Q1684.2031,595.8594 1683.1719,594.8438 Q1681.4219,593.0781 1681.4219,589.4063 Q1681.4219,585.1563 1683.2969,583.25 Q1684.3438,582.2344 1685.6719,582.2344 Q1687.0781,582.2344 1687.9219,583.0469 Q1689.4063,584.5625 1689.3281,587.4375 L1687.2031,587.4375 Q1687.125,585.1094 1686.4844,584.4688 Q1686.2031,584.1719 1685.6719,584.1719 Q1685.2188,584.1719 1684.8594,584.5469 Q1683.625,585.7656 1683.625,589.2813 Q1683.625,592.3281 1684.6719,593.3438 Q1685.0938,593.7813 1685.6094,593.7813 Q1686.0625,593.7813 1686.5,593.3438 Q1687.0625,592.7969 1687.1406,590.2031 L1689.4375,590.2031 Z " fill="#000000"/><text fill="#000000" font-family="sans-serif" font-size="14" lengthAdjust="spacing" textLength="60" x="1706.25" y="594.7285">Renderer</text><line style="stroke:#181818;stroke-width:0.5;" x1="1399.5" x2="2040.5" y1="605" y2="605"/><line style="stroke:#181818;stroke-width:0.5;" x1="1399.5" x2="2040.5" y1="613" y2="613"/><ellipse cx="1409.5" cy="627.3047" fill="#84BE84" rx="3" ry="3" style="stroke:#038048;stroke-width:1.0;"/><text fill="#000000" font-family="sans-serif" font-size="14" lengthAdjust="spacing" textLength="70" x="1418.5" y="631.5332">Renderer()</text><ellipse cx="1409.5" cy="644.9141" fill="#84BE84" rx="3" ry="3" style="stroke:#038048;stroke-width:1.0;"/><text fill="#000000" font-family="sans-serif" font-size="14" lengthAdjust="spacing" textLength="78" x="1418.5" y="649.1426">~Renderer()</text><ellipse cx="1409.5" cy="662.5234" fill="#84BE84" rx="3" ry="3" style="stroke:#038048;stroke-width:1.0;"/><text fill="#000000" font-family="sans-serif" font-size="14" lengthAdjust="spacing" textLength="135" x="1418.5" y="666.752">Init() : Utility::RESULT</text><rect fill="#F24D5C" height="6" style="stroke:#C82930;stroke-width:1.0;" width="6" x="1406.5" y="677.1328"/><text fill="#000000" font-family="sans-serif" font-size="14" lengthAdjust="spacing" textLength="617" x="1418.5" y="684.3613">RenderScene(const std::vector&lt;std::unique_ptr&lt;class Framework::Object&gt;&gt;&amp; gameObjects) : void</text><rect fill="#F24D5C" height="6" style="stroke:#C82930;stroke-width:1.0;" width="6" x="1406.5" y="694.7422"/><text fill="#000000" font-family="sans-serif" font-size="14" lengthAdjust="spacing" textLength="573" x="1418.5" y="701.9707">RenderUI(const std::vector&lt;std::unique_ptr&lt;class Framework::Canvas&gt;&gt;&amp; canvases) : void</text></g><!--MD5=[969b04ea6ddf91124977a8c05a4ad214]
class Game2048.Tile--><g id="elem_Game2048.Tile"><rect codeLine="88" fill="#F1F1F1" height="276.9219" id="Game2048.Tile" rx="2.5" ry="2.5" style="stroke:#181818;stroke-width:0.5;" width="653" x="529.5" y="769"/><ellipse cx="840.25" cy="785" fill="#ADD1B2" rx="11" ry="11" style="stroke:#181818;stroke-width:1.0;"/><path d="M843.9375,786.2031 Q843.6875,789.6875 842.5469,790.8438 Q841.5156,791.8594 840.1094,791.8594 Q838.7031,791.8594 837.6719,790.8438 Q835.9219,789.0781 835.9219,785.4063 Q835.9219,781.1563 837.7969,779.25 Q838.8438,778.2344 840.1719,778.2344 Q841.5781,778.2344 842.4219,779.0469 Q843.9063,780.5625 843.8281,783.4375 L841.7031,783.4375 Q841.625,781.1094 840.9844,780.4688 Q840.7031,780.1719 840.1719,780.1719 Q839.7188,780.1719 839.3594,780.5469 Q838.125,781.7656 838.125,785.2813 Q838.125,788.3281 839.1719,789.3438 Q839.5938,789.7813 840.1094,789.7813 Q840.5625,789.7813 841,789.3438 Q841.5625,788.7969 841.6406,786.2031 L843.9375,786.2031 Z " fill="#000000"/><text fill="#000000" font-family="sans-serif" font-size="14" lengthAdjust="spacing" textLength="23" x="860.75" y="790.7285">Tile</text><line style="stroke:#181818;stroke-width:0.5;" x1="530.5" x2="1181.5" y1="801" y2="801"/><rect fill="none" height="6" style="stroke:#C82930;stroke-width:1.0;" width="6" x="537.5" y="812.3047"/><text fill="#000000" font-family="sans-serif" font-size="14" lengthAdjust="spacing" textLength="97" x="549.5" y="819.5332">m_height : float</text><rect fill="none" height="6" style="stroke:#C82930;stroke-width:1.0;" width="6" x="537.5" y="829.9141"/><text fill="#000000" font-family="sans-serif" font-size="14" lengthAdjust="spacing" textLength="90" x="549.5" y="837.1426">m_width : float</text><rect fill="none" height="6" style="stroke:#C82930;stroke-width:1.0;" width="6" x="537.5" y="847.5234"/><text fill="#000000" font-family="sans-serif" font-size="14" lengthAdjust="spacing" text-decoration="underline" textLength="627" x="549.5" y="854.752">m_tileTextures : static std::unordered_map&lt;unsigned int, std::shared_ptr&lt;DX12Wrapper::Texture&gt;&gt;</text><rect fill="none" height="6" style="stroke:#C82930;stroke-width:1.0;" width="6" x="537.5" y="865.1328"/><text fill="#000000" font-family="sans-serif" font-size="14" lengthAdjust="spacing" textLength="156" x="549.5" y="872.3613">m_number : unsigned int</text><line style="stroke:#181818;stroke-width:0.5;" x1="530.5" x2="1181.5" y1="879.4375" y2="879.4375"/><ellipse cx="540.5" cy="893.7422" fill="#84BE84" rx="3" ry="3" style="stroke:#038048;stroke-width:1.0;"/><text fill="#000000" font-family="sans-serif" font-size="14" lengthAdjust="spacing" textLength="199" x="549.5" y="897.9707">Tile(Framework::Object* owner)</text><ellipse cx="540.5" cy="911.3516" fill="#84BE84" rx="3" ry="3" style="stroke:#038048;stroke-width:1.0;"/><text fill="#000000" font-family="sans-serif" font-size="14" lengthAdjust="spacing" textLength="41" x="549.5" y="915.5801">~Tile()</text><ellipse cx="540.5" cy="928.9609" fill="#84BE84" rx="3" ry="3" style="stroke:#038048;stroke-width:1.0;"/><text fill="#000000" font-family="sans-serif" font-size="14" lengthAdjust="spacing" textLength="171" x="549.5" y="933.1895">GetNumber() : unsigned int</text><ellipse cx="540.5" cy="946.5703" fill="#84BE84" rx="3" ry="3" style="stroke:#038048;stroke-width:1.0;"/><text fill="#000000" font-family="sans-serif" font-size="14" lengthAdjust="spacing" textLength="80" x="549.5" y="950.7988">Draw() : void</text><ellipse cx="540.5" cy="964.1797" fill="#84BE84" rx="3" ry="3" style="stroke:#038048;stroke-width:1.0;"/><text fill="#000000" font-family="sans-serif" font-size="14" lengthAdjust="spacing" text-decoration="underline" textLength="158" x="549.5" y="968.4082">LoadTileTextures() : void</text><ellipse cx="540.5" cy="981.7891" fill="#84BE84" rx="3" ry="3" style="stroke:#038048;stroke-width:1.0;"/><text fill="#000000" font-family="sans-serif" font-size="14" lengthAdjust="spacing" textLength="504" x="549.5" y="986.0176">SetGridPosition(unsigned int x, unsigned int y, float gridLeft, float gridTop) : void</text><ellipse cx="540.5" cy="999.3984" fill="#84BE84" rx="3" ry="3" style="stroke:#038048;stroke-width:1.0;"/><text fill="#000000" font-family="sans-serif" font-size="14" lengthAdjust="spacing" textLength="247" x="549.5" y="1003.627">SetNumber(unsigned int number) : void</text><ellipse cx="540.5" cy="1017.0078" fill="#84BE84" rx="3" ry="3" style="stroke:#038048;stroke-width:1.0;"/><text fill="#000000" font-family="sans-serif" font-size="14" lengthAdjust="spacing" textLength="245" x="549.5" y="1021.2363">SetScale(float width, float height) : void</text><ellipse cx="540.5" cy="1034.6172" fill="#84BE84" rx="3" ry="3" style="stroke:#038048;stroke-width:1.0;"/><text fill="#000000" font-family="sans-serif" font-size="14" lengthAdjust="spacing" textLength="186" x="549.5" y="1038.8457">Update(float deltaTime) : void</text></g><!--MD5=[badfe561d62a0f52c21b800cd321d5ce]
class Game2048.TitleScene--><g id="elem_Game2048.TitleScene"><rect codeLine="104" fill="#F1F1F1" height="118.4375" id="Game2048.TitleScene" rx="2.5" ry="2.5" style="stroke:#181818;stroke-width:0.5;" width="111" x="1217.5" y="848.5"/><ellipse cx="1237.9" cy="864.5" fill="#ADD1B2" rx="11" ry="11" style="stroke:#181818;stroke-width:1.0;"/><path d="M1241.5875,865.7031 Q1241.3375,869.1875 1240.1969,870.3438 Q1239.1656,871.3594 1237.7594,871.3594 Q1236.3531,871.3594 1235.3219,870.3438 Q1233.5719,868.5781 1233.5719,864.9063 Q1233.5719,860.6563 1235.4469,858.75 Q1236.4938,857.7344 1237.8219,857.7344 Q1239.2281,857.7344 1240.0719,858.5469 Q1241.5563,860.0625 1241.4781,862.9375 L1239.3531,862.9375 Q1239.275,860.6094 1238.6344,859.9688 Q1238.3531,859.6719 1237.8219,859.6719 Q1237.3688,859.6719 1237.0094,860.0469 Q1235.775,861.2656 1235.775,864.7813 Q1235.775,867.8281 1236.8219,868.8438 Q1237.2438,869.2813 1237.7594,869.2813 Q1238.2125,869.2813 1238.65,868.8438 Q1239.2125,868.2969 1239.2906,865.7031 L1241.5875,865.7031 Z " fill="#000000"/><text fill="#000000" font-family="sans-serif" font-size="14" lengthAdjust="spacing" textLength="67" x="1253.1" y="870.2285">TitleScene</text><line style="stroke:#181818;stroke-width:0.5;" x1="1218.5" x2="1327.5" y1="880.5" y2="880.5"/><line style="stroke:#181818;stroke-width:0.5;" x1="1218.5" x2="1327.5" y1="888.5" y2="888.5"/><ellipse cx="1228.5" cy="902.8047" fill="#84BE84" rx="3" ry="3" style="stroke:#038048;stroke-width:1.0;"/><text fill="#000000" font-family="sans-serif" font-size="14" lengthAdjust="spacing" textLength="77" x="1237.5" y="907.0332">TitleScene()</text><ellipse cx="1228.5" cy="920.4141" fill="#84BE84" rx="3" ry="3" style="stroke:#038048;stroke-width:1.0;"/><text fill="#000000" font-family="sans-serif" font-size="14" lengthAdjust="spacing" textLength="85" x="1237.5" y="924.6426">~TitleScene()</text><ellipse cx="1228.5" cy="938.0234" fill="#84BE84" rx="3" ry="3" style="stroke:#038048;stroke-width:1.0;"/><text fill="#000000" font-family="sans-serif" font-size="14" lengthAdjust="spacing" textLength="79" x="1237.5" y="942.252">Final() : void</text><ellipse cx="1228.5" cy="955.6328" fill="#84BE84" rx="3" ry="3" style="stroke:#038048;stroke-width:1.0;"/><text fill="#000000" font-family="sans-serif" font-size="14" lengthAdjust="spacing" textLength="66" x="1237.5" y="959.8613">Init() : void</text></g><!--MD5=[19592363d259605592f500b11e6cc160]
class Game2048.TitleSceneCanvas--><g id="elem_Game2048.TitleSceneCanvas"><rect codeLine="111" fill="#F1F1F1" height="118.4375" id="Game2048.TitleSceneCanvas" rx="2.5" ry="2.5" style="stroke:#181818;stroke-width:0.5;" width="159" x="1363.5" y="848.5"/><ellipse cx="1383.9" cy="864.5" fill="#ADD1B2" rx="11" ry="11" style="stroke:#181818;stroke-width:1.0;"/><path d="M1387.5875,865.7031 Q1387.3375,869.1875 1386.1969,870.3438 Q1385.1656,871.3594 1383.7594,871.3594 Q1382.3531,871.3594 1381.3219,870.3438 Q1379.5719,868.5781 1379.5719,864.9063 Q1379.5719,860.6563 1381.4469,858.75 Q1382.4938,857.7344 1383.8219,857.7344 Q1385.2281,857.7344 1386.0719,858.5469 Q1387.5563,860.0625 1387.4781,862.9375 L1385.3531,862.9375 Q1385.275,860.6094 1384.6344,859.9688 Q1384.3531,859.6719 1383.8219,859.6719 Q1383.3688,859.6719 1383.0094,860.0469 Q1381.775,861.2656 1381.775,864.7813 Q1381.775,867.8281 1382.8219,868.8438 Q1383.2438,869.2813 1383.7594,869.2813 Q1384.2125,869.2813 1384.65,868.8438 Q1385.2125,868.2969 1385.2906,865.7031 L1387.5875,865.7031 Z " fill="#000000"/><text fill="#000000" font-family="sans-serif" font-size="14" lengthAdjust="spacing" textLength="115" x="1399.1" y="870.2285">TitleSceneCanvas</text><line style="stroke:#181818;stroke-width:0.5;" x1="1364.5" x2="1521.5" y1="880.5" y2="880.5"/><line style="stroke:#181818;stroke-width:0.5;" x1="1364.5" x2="1521.5" y1="888.5" y2="888.5"/><ellipse cx="1374.5" cy="902.8047" fill="#84BE84" rx="3" ry="3" style="stroke:#038048;stroke-width:1.0;"/><text fill="#000000" font-family="sans-serif" font-size="14" lengthAdjust="spacing" textLength="125" x="1383.5" y="907.0332">TitleSceneCanvas()</text><ellipse cx="1374.5" cy="920.4141" fill="#84BE84" rx="3" ry="3" style="stroke:#038048;stroke-width:1.0;"/><text fill="#000000" font-family="sans-serif" font-size="14" lengthAdjust="spacing" textLength="133" x="1383.5" y="924.6426">~TitleSceneCanvas()</text><ellipse cx="1374.5" cy="938.0234" fill="#84BE84" rx="3" ry="3" style="stroke:#038048;stroke-width:1.0;"/><text fill="#000000" font-family="sans-serif" font-size="14" lengthAdjust="spacing" textLength="79" x="1383.5" y="942.252">Final() : void</text><ellipse cx="1374.5" cy="955.6328" fill="#84BE84" rx="3" ry="3" style="stroke:#038048;stroke-width:1.0;"/><text fill="#000000" font-family="sans-serif" font-size="14" lengthAdjust="spacing" textLength="66" x="1383.5" y="959.8613">Init() : void</text></g><!--MD5=[6defd214f024561847a191484dd2d82f]
class Game2048.GameScene::DRAW_LAYER--><g id="elem_Game2048.GameScene::DRAW_LAYER"><rect codeLine="118" fill="#F1F1F1" height="136.0469" id="Game2048.GameScene::DRAW_LAYER" rx="2.5" ry="2.5" style="stroke:#181818;stroke-width:0.5;" width="213" x="440.5" y="573"/><ellipse cx="455.5" cy="589" fill="#EB937F" rx="11" ry="11" style="stroke:#181818;stroke-width:1.0;"/><path d="M454.2188,587.6719 L458.7344,587.6719 L458.7344,589.625 L454.2188,589.625 L454.2188,593.9219 L459.4531,593.9219 L459.4531,595.8594 L452,595.8594 L452,582.2344 L459.125,582.2344 L459.125,584.1719 L454.2188,584.1719 L454.2188,587.6719 Z " fill="#000000"/><text fill="#000000" font-family="sans-serif" font-size="14" lengthAdjust="spacing" textLength="181" x="469.5" y="594.7285">GameScene::DRAW_LAYER</text><line style="stroke:#181818;stroke-width:0.5;" x1="441.5" x2="652.5" y1="605" y2="605"/><text fill="#000000" font-family="sans-serif" font-size="14" lengthAdjust="spacing" textLength="97" x="446.5" y="623.5332">BACKGROUND</text><text fill="#000000" font-family="sans-serif" font-size="14" lengthAdjust="spacing" textLength="139" x="446.5" y="641.1426">GRID_BACKGROUND</text><text fill="#000000" font-family="sans-serif" font-size="14" lengthAdjust="spacing" textLength="71" x="446.5" y="658.752">GRID_LINE</text><text fill="#000000" font-family="sans-serif" font-size="14" lengthAdjust="spacing" textLength="29" x="446.5" y="676.3613">TILE</text><text fill="#000000" font-family="sans-serif" font-size="14" lengthAdjust="spacing" textLength="12" x="446.5" y="693.9707">UI</text><line style="stroke:#181818;stroke-width:0.5;" x1="441.5" x2="652.5" y1="701.0469" y2="701.0469"/></g><!--MD5=[843309f31855e032483264b0643c4f7c]
class Game2048.Grid::GAME_STATE--><g id="elem_Game2048.Grid::GAME_STATE"><rect codeLine="126" fill="#F1F1F1" height="100.8281" id="Game2048.Grid::GAME_STATE" rx="2.5" ry="2.5" style="stroke:#181818;stroke-width:0.5;" width="160" x="22" y="590.5"/><ellipse cx="37" cy="606.5" fill="#EB937F" rx="11" ry="11" style="stroke:#181818;stroke-width:1.0;"/><path d="M35.7188,605.1719 L40.2344,605.1719 L40.2344,607.125 L35.7188,607.125 L35.7188,611.4219 L40.9531,611.4219 L40.9531,613.3594 L33.5,613.3594 L33.5,599.7344 L40.625,599.7344 L40.625,601.6719 L35.7188,601.6719 L35.7188,605.1719 Z " fill="#000000"/><text fill="#000000" font-family="sans-serif" font-size="14" lengthAdjust="spacing" textLength="128" x="51" y="612.2285">Grid::GAME_STATE</text><line style="stroke:#181818;stroke-width:0.5;" x1="23" x2="181" y1="622.5" y2="622.5"/><text fill="#000000" font-family="sans-serif" font-size="14" lengthAdjust="spacing" textLength="94" x="28" y="641.0332">GAME_CLEAR</text><text fill="#000000" font-family="sans-serif" font-size="14" lengthAdjust="spacing" textLength="87" x="28" y="658.6426">GAME_OVER</text><text fill="#000000" font-family="sans-serif" font-size="14" lengthAdjust="spacing" textLength="58" x="28" y="676.252">PLAYING</text><line style="stroke:#181818;stroke-width:0.5;" x1="23" x2="181" y1="683.3281" y2="683.3281"/></g><!--MD5=[bd7c124710029db2788698bc7f105b01]
class Game2048.Grid::INPUT_DIRECTION--><g id="elem_Game2048.Grid::INPUT_DIRECTION"><rect codeLine="132" fill="#F1F1F1" height="136.0469" id="Game2048.Grid::INPUT_DIRECTION" rx="2.5" ry="2.5" style="stroke:#181818;stroke-width:0.5;" width="188" x="217" y="573"/><ellipse cx="232" cy="589" fill="#EB937F" rx="11" ry="11" style="stroke:#181818;stroke-width:1.0;"/><path d="M230.7188,587.6719 L235.2344,587.6719 L235.2344,589.625 L230.7188,589.625 L230.7188,593.9219 L235.9531,593.9219 L235.9531,595.8594 L228.5,595.8594 L228.5,582.2344 L235.625,582.2344 L235.625,584.1719 L230.7188,584.1719 L230.7188,587.6719 Z " fill="#000000"/><text fill="#000000" font-family="sans-serif" font-size="14" lengthAdjust="spacing" textLength="156" x="246" y="594.7285">Grid::INPUT_DIRECTION</text><line style="stroke:#181818;stroke-width:0.5;" x1="218" x2="404" y1="605" y2="605"/><text fill="#000000" font-family="sans-serif" font-size="14" lengthAdjust="spacing" textLength="43" x="223" y="623.5332">DOWN</text><text fill="#000000" font-family="sans-serif" font-size="14" lengthAdjust="spacing" textLength="35" x="223" y="641.1426">LEFT</text><text fill="#000000" font-family="sans-serif" font-size="14" lengthAdjust="spacing" textLength="38" x="223" y="658.752">NONE</text><text fill="#000000" font-family="sans-serif" font-size="14" lengthAdjust="spacing" textLength="42" x="223" y="676.3613">RIGHT</text><text fill="#000000" font-family="sans-serif" font-size="14" lengthAdjust="spacing" textLength="18" x="223" y="693.9707">UP</text><line style="stroke:#181818;stroke-width:0.5;" x1="218" x2="404" y1="701.0469" y2="701.0469"/></g><!--MD5=[9ffad002ff0d76c18238890543cadfcf]
reverse link Game2048.GameScene to Game2048.GameScene::DRAW_LAYER--><g id="link_Game2048.GameScene_Game2048.GameScene::DRAW_LAYER"><path codeLine="158" d="M613.23,351.56 C598.37,416.27 576.85,509.97 562.42,572.84 " fill="none" id="Game2048.GameScene-backto-Game2048.GameScene::DRAW_LAYER" style="stroke:#181818;stroke-width:1.0;"/><ellipse cx="614.8689" cy="344.3769" fill="#FFFFFF" rx="8" ry="8" style="stroke:#181818;stroke-width:1.0;"/><line style="stroke:#181818;stroke-width:1.0;" x1="613.0778" x2="616.66" y1="352.1738" y2="336.58"/><line style="stroke:#181818;stroke-width:1.0;" x1="607.072" x2="622.6658" y1="342.5858" y2="346.168"/></g><!--MD5=[5e8cf46603d860c76312e4f38d31e105]
reverse link Game2048.Grid to Game2048.Grid::GAME_STATE--><g id="link_Game2048.Grid_Game2048.Grid::GAME_STATE"><path codeLine="161" d="M157.11,526.8 C145.58,550.5 134.92,572.39 126.11,590.47 " fill="none" id="Game2048.Grid-backto-Game2048.Grid::GAME_STATE" style="stroke:#181818;stroke-width:1.0;"/><ellipse cx="160.3018" cy="520.2546" fill="#FFFFFF" rx="8" ry="8" style="stroke:#181818;stroke-width:1.0;"/><line style="stroke:#181818;stroke-width:1.0;" x1="156.8035" x2="163.8" y1="527.4492" y2="513.06"/><line style="stroke:#181818;stroke-width:1.0;" x1="153.1072" x2="167.4964" y1="516.7564" y2="523.7528"/></g><!--MD5=[d327b60038b54a7460383a78e1d6046e]
reverse link Game2048.Grid to Game2048.Grid::INPUT_DIRECTION--><g id="link_Game2048.Grid_Game2048.Grid::INPUT_DIRECTION"><path codeLine="164" d="M300.82,528.47 C302.26,544.3 303.63,559.3 304.87,572.86 " fill="none" id="Game2048.Grid-backto-Game2048.Grid::INPUT_DIRECTION" style="stroke:#181818;stroke-width:1.0;"/><ellipse cx="300.1343" cy="521.0271" fill="#FFFFFF" rx="8" ry="8" style="stroke:#181818;stroke-width:1.0;"/><line style="stroke:#181818;stroke-width:1.0;" x1="300.8586" x2="299.41" y1="528.9943" y2="513.06"/><line style="stroke:#181818;stroke-width:1.0;" x1="292.1671" x2="308.1014" y1="521.7514" y2="520.3029"/></g><!--MD5=[38620c55d2b9d468021a07ef5ba0a247]
@startuml





/' Objects '/

namespace Game2048 {
	class Game2048 {
		+Game2048()
		+~Game2048()
		+Final() : void
		+Init() : void
	}

	class GameScene {
		+GameScene()
		+~GameScene()
		+Final() : void
		+Init() : void
	}

	class GameSceneCanvas {
		+GameSceneCanvas()
		+~GameSceneCanvas()
		+Final() : void
		+Init() : void
	}

	class GameTimer {
		+GameTimer(Framework::Object* owner)
		+~GameTimer()
		-m_elapsedTime : float
		+Draw() : void
		+Update(float deltaTime) : void
	}

	class Grid {
		+Grid(Framework::Object* owner)
		+~Grid()
		-m_gameState : GAME_STATE
		-CheckInputDirection() : INPUT_DIRECTION
		-CheckGameClear() : bool
		-CheckGameOver() : bool
		-Move(INPUT_DIRECTION direction) : bool
		-Union(INPUT_DIRECTION direction) : bool
		-m_gridLeft : float
		-m_gridTop : float
		-m_randomEngine : std::mt19937_64
		-m_randomGenerator : std::uniform_real_distribution<>
		-m_gameClearText : std::unique_ptr<class Framework::Object>
		-m_gameOverText : std::unique_ptr<class Framework::Object>
		-m_tiles : std::vector<std::vector<std::unique_ptr<class Framework::Object>>>
		-m_grid : std::vector<std::vector<unsigned int>>
		+Draw() : void
		-GameClear(float deltaTime) : void
		-GameOver(float deltaTime) : void
		-Playing(float deltaTime) : void
		-SpawnTile(INPUT_DIRECTION direction) : void
		-TileDraw() : void
		+Update(float deltaTime) : void
		-UpdateTile(float deltaTime) : void
	}

	class PressEnterText {
		+PressEnterText(class Framework::Object* owner)
		+~PressEnterText()
		-m_elapsedTime : float
		+Draw() : void
		+Update(float deltaTime) : void
	}

	class QuitButton {
		+QuitButton(class Framework::Object* owner)
		+~QuitButton()
		+Draw() : void
		+Update(float deltaTime) : void
	}

	class Renderer {
		+Renderer()
		+~Renderer()
		+Init() : Utility::RESULT
		-RenderScene(const std::vector<std::unique_ptr<class Framework::Object>>& gameObjects) : void
		-RenderUI(const std::vector<std::unique_ptr<class Framework::Canvas>>& canvases) : void
	}

	class Tile {
		+Tile(Framework::Object* owner)
		+~Tile()
		-m_height : float
		-m_width : float
		-{static} m_tileTextures : static std::unordered_map<unsigned int, std::shared_ptr<DX12Wrapper::Texture>>
		+GetNumber() : unsigned int
		-m_number : unsigned int
		+Draw() : void
		+{static} LoadTileTextures() : void
		+SetGridPosition(unsigned int x, unsigned int y, float gridLeft, float gridTop) : void
		+SetNumber(unsigned int number) : void
		+SetScale(float width, float height) : void
		+Update(float deltaTime) : void
	}

	class TitleScene {
		+TitleScene()
		+~TitleScene()
		+Final() : void
		+Init() : void
	}

	class TitleSceneCanvas {
		+TitleSceneCanvas()
		+~TitleSceneCanvas()
		+Final() : void
		+Init() : void
	}

	enum GameScene::DRAW_LAYER {
		BACKGROUND
		GRID_BACKGROUND
		GRID_LINE
		TILE
		UI
	}

	enum Grid::GAME_STATE {
		GAME_CLEAR
		GAME_OVER
		PLAYING
	}

	enum Grid::INPUT_DIRECTION {
		DOWN
		LEFT
		NONE
		RIGHT
		UP
	}
}





/' Inheritance relationships '/




/' Aggregation relationships '/





/' Nested objects '/

Game2048.GameScene +- - Game2048.GameScene::DRAW_LAYER


Game2048.Grid +- - Game2048.Grid::GAME_STATE


Game2048.Grid +- - Game2048.Grid::INPUT_DIRECTION




@enduml

@startuml






namespace Game2048 {
	class Game2048 {
		+Game2048()
		+~Game2048()
		+Final() : void
		+Init() : void
	}

	class GameScene {
		+GameScene()
		+~GameScene()
		+Final() : void
		+Init() : void
	}

	class GameSceneCanvas {
		+GameSceneCanvas()
		+~GameSceneCanvas()
		+Final() : void
		+Init() : void
	}

	class GameTimer {
		+GameTimer(Framework::Object* owner)
		+~GameTimer()
		-m_elapsedTime : float
		+Draw() : void
		+Update(float deltaTime) : void
	}

	class Grid {
		+Grid(Framework::Object* owner)
		+~Grid()
		-m_gameState : GAME_STATE
		-CheckInputDirection() : INPUT_DIRECTION
		-CheckGameClear() : bool
		-CheckGameOver() : bool
		-Move(INPUT_DIRECTION direction) : bool
		-Union(INPUT_DIRECTION direction) : bool
		-m_gridLeft : float
		-m_gridTop : float
		-m_randomEngine : std::mt19937_64
		-m_randomGenerator : std::uniform_real_distribution<>
		-m_gameClearText : std::unique_ptr<class Framework::Object>
		-m_gameOverText : std::unique_ptr<class Framework::Object>
		-m_tiles : std::vector<std::vector<std::unique_ptr<class Framework::Object>>>
		-m_grid : std::vector<std::vector<unsigned int>>
		+Draw() : void
		-GameClear(float deltaTime) : void
		-GameOver(float deltaTime) : void
		-Playing(float deltaTime) : void
		-SpawnTile(INPUT_DIRECTION direction) : void
		-TileDraw() : void
		+Update(float deltaTime) : void
		-UpdateTile(float deltaTime) : void
	}

	class PressEnterText {
		+PressEnterText(class Framework::Object* owner)
		+~PressEnterText()
		-m_elapsedTime : float
		+Draw() : void
		+Update(float deltaTime) : void
	}

	class QuitButton {
		+QuitButton(class Framework::Object* owner)
		+~QuitButton()
		+Draw() : void
		+Update(float deltaTime) : void
	}

	class Renderer {
		+Renderer()
		+~Renderer()
		+Init() : Utility::RESULT
		-RenderScene(const std::vector<std::unique_ptr<class Framework::Object>>& gameObjects) : void
		-RenderUI(const std::vector<std::unique_ptr<class Framework::Canvas>>& canvases) : void
	}

	class Tile {
		+Tile(Framework::Object* owner)
		+~Tile()
		-m_height : float
		-m_width : float
		-{static} m_tileTextures : static std::unordered_map<unsigned int, std::shared_ptr<DX12Wrapper::Texture>>
		+GetNumber() : unsigned int
		-m_number : unsigned int
		+Draw() : void
		+{static} LoadTileTextures() : void
		+SetGridPosition(unsigned int x, unsigned int y, float gridLeft, float gridTop) : void
		+SetNumber(unsigned int number) : void
		+SetScale(float width, float height) : void
		+Update(float deltaTime) : void
	}

	class TitleScene {
		+TitleScene()
		+~TitleScene()
		+Final() : void
		+Init() : void
	}

	class TitleSceneCanvas {
		+TitleSceneCanvas()
		+~TitleSceneCanvas()
		+Final() : void
		+Init() : void
	}

	enum GameScene::DRAW_LAYER {
		BACKGROUND
		GRID_BACKGROUND
		GRID_LINE
		TILE
		UI
	}

	enum Grid::GAME_STATE {
		GAME_CLEAR
		GAME_OVER
		PLAYING
	}

	enum Grid::INPUT_DIRECTION {
		DOWN
		LEFT
		NONE
		RIGHT
		UP
	}
}















Game2048.GameScene +- - Game2048.GameScene::DRAW_LAYER


Game2048.Grid +- - Game2048.Grid::GAME_STATE


Game2048.Grid +- - Game2048.Grid::INPUT_DIRECTION




@enduml

PlantUML version 1.2022.7(Tue Aug 23 02:01:30 JST 2022)
(GPL source distribution)
Java Runtime: Java(TM) SE Runtime Environment
JVM: Java HotSpot(TM) 64-Bit Server VM
Default Encoding: MS932
Language: ja
Country: JP
--></g></svg>